<svg xmlns="http://www.w3.org/2000/svg" xmlns:xlink="http://www.w3.org/1999/xlink" width="64" height="60" version="1.1" viewBox="0 0 64 60"><title>Building</title><desc>Created with Sketch.</desc><g id="Page-1" fill="none" fill-rule="evenodd" stroke="none" stroke-width="1"><g id="Building" stroke="#6B6C6E" stroke-width="2" transform="translate(1.000000, 2.000000)"><path id="Shape" d="M60.8,52.1 L58,52.1 L58,20.7 C58,18.5 51,12.8 51,12.8 C51,12.8 37,18.5 37,20.7 L37,56 L31,56 L31,7.9 C31,5.7 22,0 22,0 C22,0 4,5.7 4,7.9 L4,52.1 L1,52.1 C-0.1,52.1 1.83182462e-14,53 1.83182462e-14,54.1 C1.83182462e-14,55.2 -0.1,56.1 1,56.1 L60.8,56.1 C62.2,56.1 62,55.2 62,54.1 C62,53 62.2,52.1 60.8,52.1 L60.8,52.1 Z"/><path id="Shape" d="M22,0 L22,49.1"/><path id="Shape" d="M7,11.8 L14,8.8"/><path id="Shape" d="M7,17.7 L14,14.7"/><path id="Shape" d="M7,22.6 L14,19.6"/><path id="Shape" d="M7,27.5 L14,24.6"/><path id="Shape" d="M7,33.4 L14,30.5"/><path id="Shape" d="M7,38.3 L14,35.4"/><path id="Shape" d="M7,44.2 L14,41.3"/><path id="Shape" d="M7,49.1 L14,46.2"/><path id="Shape" d="M16,7.9 L19,6.9"/><path id="Shape" d="M16,13.8 L19,12.8"/><path id="Shape" d="M16,18.7 L19,17.7"/><path id="Shape" d="M16,23.6 L19,22.6"/><path id="Shape" d="M16,29.5 L19,28.5"/><path id="Shape" d="M16,34.4 L19,33.4"/><path id="Shape" d="M16,40.3 L19,39.3"/><path id="Shape" d="M16,45.2 L19,44.2"/><path id="Shape" d="M51,12.8 L51,49.1"/><path id="Shape" d="M40,23.6 L47,20.6"/><path id="Shape" d="M40,28.5 L47,25.5"/><path id="Shape" d="M40,33.4 L47,30.5"/><path id="Shape" d="M40,39.3 L47,36.3"/><path id="Shape" d="M40,44.2 L47,41.3"/></g></g></svg>