<svg height="1.5em" viewBox="0 -39 512 512" width="1.5em" xmlns="http://www.w3.org/2000/svg"><path d="m270.136719 84.222656c-7.804688-7.804687-20.476563-7.808594-28.285157 0l-78.660156 78.671875c-3.75 3.75-5.855468 8.835938-5.855468 14.140625v78.664063c0 11.046875 8.953124 20 20 20h157.328124c11.046876 0 20-8.953125 20-20v-78.664063c0-5.304687-2.105468-10.390625-5.855468-14.144531zm44.527343 151.476563h-117.328124v-50.382813l58.660156-58.667968 58.667968 58.671874zm147.335938-235.699219h-412c-27.570312 0-50 22.429688-50 50v254.667969c0 27.570312 22.429688 50 50 50h118.890625l72.980469 72.824219c7.808594 7.789062 20.460937 7.792968 28.273437-.015626l72.804688-72.808593h119.050781c27.570312 0 50-22.429688 50-50v-254.667969c0-27.570312-22.429688-50-50-50zm10 304.667969c0 5.511719-4.484375 10-10 10h-127.335938c-5.304687 0-10.390624 2.105469-14.140624 5.855469l-64.539063 64.539062-64.695313-64.554688c-3.75-3.738281-8.828124-5.84375-14.125-5.84375h-127.164062c-5.515625 0-10-4.484374-10-10v-254.664062c0-5.515625 4.484375-10 10-10h412c5.515625 0 10 4.484375 10 10zm0 0"/></svg>